<mxfile host="65bd71144e" modified="2020-11-08T06:29:38.869Z" agent="5.0 (Windows NT 10.0; Win64; x64) AppleWebKit/537.36 (KHTML, like Gecko) Code/1.51.0 Chrome/83.0.4103.122 Electron/9.3.3 Safari/537.36" etag="3w6LGdJbzL-Xzz6r3Cg-" version="13.6.5">
    <diagram id="bjtUC3DR2Rm7aZbc2C3K" name="第 1 页">
        <mxGraphModel dx="734" dy="430" grid="1" gridSize="10" guides="1" tooltips="1" connect="1" arrows="1" fold="1" page="1" pageScale="1" pageWidth="827" pageHeight="1169" background="#ffffff" math="0" shadow="0">
            <root>
                <mxCell id="0"/>
                <mxCell id="1" parent="0"/>
                <mxCell id="36" value="" style="rounded=0;whiteSpace=wrap;html=1;fillColor=none;strokeColor=#009900;strokeWidth=3;" vertex="1" parent="1">
                    <mxGeometry x="19" y="130" width="451" height="450" as="geometry"/>
                </mxCell>
                <mxCell id="37" value="" style="rounded=0;whiteSpace=wrap;html=1;strokeWidth=3;fontColor=#ffffff;fillColor=none;strokeColor=#990099;" vertex="1" parent="1">
                    <mxGeometry x="330" y="150" width="390" height="380" as="geometry"/>
                </mxCell>
                <mxCell id="12" style="edgeStyle=orthogonalEdgeStyle;rounded=0;orthogonalLoop=1;jettySize=auto;html=1;exitX=0.75;exitY=1;exitDx=0;exitDy=0;entryX=0.25;entryY=0;entryDx=0;entryDy=0;" parent="1" source="2" target="7" edge="1">
                    <mxGeometry relative="1" as="geometry">
                        <Array as="points">
                            <mxPoint x="206" y="370"/>
                            <mxPoint x="378" y="370"/>
                        </Array>
                    </mxGeometry>
                </mxCell>
                <mxCell id="13" style="edgeStyle=orthogonalEdgeStyle;rounded=0;orthogonalLoop=1;jettySize=auto;html=1;exitX=0.25;exitY=1;exitDx=0;exitDy=0;entryX=0.564;entryY=-0.033;entryDx=0;entryDy=0;entryPerimeter=0;" parent="1" source="2" target="3" edge="1">
                    <mxGeometry relative="1" as="geometry"/>
                </mxCell>
                <mxCell id="15" style="edgeStyle=orthogonalEdgeStyle;rounded=0;orthogonalLoop=1;jettySize=auto;html=1;exitX=0.5;exitY=1;exitDx=0;exitDy=0;entryX=0.5;entryY=0;entryDx=0;entryDy=0;" parent="1" source="2" target="5" edge="1">
                    <mxGeometry relative="1" as="geometry"/>
                </mxCell>
                <mxCell id="2" value="&lt;div class=&quot;O0&quot; style=&quot;margin-top: 0pt ; margin-bottom: 0pt ; margin-left: 0.38in ; text-indent: -0.38in&quot;&gt;&lt;font style=&quot;font-size: 18px&quot;&gt;out_kbd.v&lt;/font&gt;&lt;/div&gt;" style="rounded=1;whiteSpace=wrap;html=1;fillColor=#f0a30a;strokeColor=#BD7000;fontColor=#ffffff;shadow=0;glass=0;" parent="1" vertex="1">
                    <mxGeometry x="66" y="160" width="186" height="70" as="geometry"/>
                </mxCell>
                <mxCell id="3" value="&lt;div class=&quot;O0&quot; style=&quot;margin-top: 0pt ; margin-bottom: 0pt ; margin-left: 0.38in ; text-indent: -0.38in&quot;&gt;&lt;font style=&quot;font-size: 14px&quot;&gt;ps2_keyboard.v&lt;/font&gt;&lt;/div&gt;" style="rounded=1;whiteSpace=wrap;html=1;shadow=0;glass=0;fillColor=#f0a30a;strokeColor=#BD7000;fontColor=#ffffff;" parent="1" vertex="1">
                    <mxGeometry x="24" y="280" width="110" height="50" as="geometry"/>
                </mxCell>
                <mxCell id="20" style="edgeStyle=orthogonalEdgeStyle;rounded=0;orthogonalLoop=1;jettySize=auto;html=1;exitX=0.5;exitY=1;exitDx=0;exitDy=0;entryX=0.5;entryY=0;entryDx=0;entryDy=0;" parent="1" source="5" target="16" edge="1">
                    <mxGeometry relative="1" as="geometry"/>
                </mxCell>
                <mxCell id="21" style="edgeStyle=orthogonalEdgeStyle;rounded=0;orthogonalLoop=1;jettySize=auto;html=1;exitX=0.75;exitY=1;exitDx=0;exitDy=0;entryX=0.5;entryY=0;entryDx=0;entryDy=0;" parent="1" source="5" target="17" edge="1">
                    <mxGeometry relative="1" as="geometry"/>
                </mxCell>
                <mxCell id="22" style="edgeStyle=orthogonalEdgeStyle;rounded=0;orthogonalLoop=1;jettySize=auto;html=1;exitX=0.5;exitY=1;exitDx=0;exitDy=0;entryX=0.75;entryY=0;entryDx=0;entryDy=0;" parent="1" source="5" target="18" edge="1">
                    <mxGeometry relative="1" as="geometry"/>
                </mxCell>
                <mxCell id="23" style="edgeStyle=orthogonalEdgeStyle;rounded=0;orthogonalLoop=1;jettySize=auto;html=1;exitX=0.75;exitY=1;exitDx=0;exitDy=0;entryX=0.25;entryY=0;entryDx=0;entryDy=0;" parent="1" source="5" target="19" edge="1">
                    <mxGeometry relative="1" as="geometry"/>
                </mxCell>
                <mxCell id="5" value="&lt;div class=&quot;O0&quot; style=&quot;margin-top: 0pt ; margin-bottom: 0pt ; margin-left: 0.38in ; text-indent: -0.38in ; font-size: 14px&quot;&gt;roms_ascii.v&lt;/div&gt;" style="rounded=1;whiteSpace=wrap;html=1;shadow=0;glass=0;fillColor=#f0a30a;strokeColor=#BD7000;fontColor=#ffffff;" parent="1" vertex="1">
                    <mxGeometry x="104" y="380" width="110" height="50" as="geometry"/>
                </mxCell>
                <mxCell id="7" value="&lt;div class=&quot;O0&quot; style=&quot;margin-top: 0pt ; margin-bottom: 0pt ; margin-left: 0.38in ; text-indent: -0.38in&quot;&gt;seg_7_out.v&lt;/div&gt;" style="rounded=1;whiteSpace=wrap;html=1;shadow=0;glass=0;fillColor=#f0a30a;strokeColor=#BD7000;fontColor=#ffffff;" parent="1" vertex="1">
                    <mxGeometry x="350" y="410" width="110" height="50" as="geometry"/>
                </mxCell>
                <mxCell id="11" style="edgeStyle=orthogonalEdgeStyle;rounded=0;orthogonalLoop=1;jettySize=auto;html=1;exitX=0.5;exitY=1;exitDx=0;exitDy=0;" parent="1" source="2" target="2" edge="1">
                    <mxGeometry relative="1" as="geometry"/>
                </mxCell>
                <mxCell id="16" value="&lt;div class=&quot;O0&quot; style=&quot;margin-top: 0pt ; margin-bottom: 0pt ; margin-left: 0.38in ; text-indent: -0.38in&quot;&gt;scancode.txt&lt;/div&gt;" style="rounded=1;whiteSpace=wrap;html=1;shadow=0;glass=0;fillColor=#f0a30a;strokeColor=#BD7000;fontColor=#ffffff;" parent="1" vertex="1">
                    <mxGeometry x="34" y="470" width="100" height="40" as="geometry"/>
                </mxCell>
                <mxCell id="17" value="&lt;div class=&quot;O0&quot; style=&quot;margin-top: 0pt ; margin-bottom: 0pt ; margin-left: 0.38in ; text-indent: -0.38in&quot;&gt;shiftcode.txt&lt;/div&gt;" style="rounded=1;whiteSpace=wrap;html=1;shadow=0;glass=0;fillColor=#f0a30a;strokeColor=#BD7000;fontColor=#ffffff;" parent="1" vertex="1">
                    <mxGeometry x="214" y="470" width="100" height="40" as="geometry"/>
                </mxCell>
                <mxCell id="18" value="&lt;div class=&quot;O0&quot; style=&quot;margin-top: 0pt ; margin-bottom: 0pt ; margin-left: 0.38in ; text-indent: -0.38in&quot;&gt;capcode.txt&lt;/div&gt;" style="rounded=1;whiteSpace=wrap;html=1;shadow=0;glass=0;fillColor=#f0a30a;strokeColor=#BD7000;fontColor=#ffffff;" parent="1" vertex="1">
                    <mxGeometry x="74" y="520" width="100" height="40" as="geometry"/>
                </mxCell>
                <mxCell id="19" value="&lt;div class=&quot;O0&quot; style=&quot;margin-top: 0pt ; margin-bottom: 0pt ; margin-left: 0.38in ; text-indent: -0.38in&quot;&gt;capshiftcode.txt&lt;/div&gt;" style="rounded=1;whiteSpace=wrap;html=1;shadow=0;glass=0;fillColor=#f0a30a;strokeColor=#BD7000;fontColor=#ffffff;" parent="1" vertex="1">
                    <mxGeometry x="179" y="520" width="100" height="40" as="geometry"/>
                </mxCell>
                <mxCell id="24" style="edgeStyle=orthogonalEdgeStyle;rounded=0;orthogonalLoop=1;jettySize=auto;html=1;exitX=0.5;exitY=1;exitDx=0;exitDy=0;" parent="1" source="19" target="19" edge="1">
                    <mxGeometry relative="1" as="geometry"/>
                </mxCell>
                <mxCell id="26" style="edgeStyle=orthogonalEdgeStyle;rounded=0;orthogonalLoop=1;jettySize=auto;html=1;exitX=0.25;exitY=1;exitDx=0;exitDy=0;entryX=0.5;entryY=0;entryDx=0;entryDy=0;" parent="1" source="25" target="2" edge="1">
                    <mxGeometry relative="1" as="geometry"/>
                </mxCell>
                <mxCell id="28" style="edgeStyle=orthogonalEdgeStyle;rounded=0;orthogonalLoop=1;jettySize=auto;html=1;exitX=0.75;exitY=1;exitDx=0;exitDy=0;" edge="1" parent="1" source="25" target="27">
                    <mxGeometry relative="1" as="geometry">
                        <Array as="points">
                            <mxPoint x="425" y="290"/>
                            <mxPoint x="593" y="290"/>
                        </Array>
                    </mxGeometry>
                </mxCell>
                <mxCell id="31" style="edgeStyle=orthogonalEdgeStyle;rounded=0;orthogonalLoop=1;jettySize=auto;html=1;exitX=0.75;exitY=1;exitDx=0;exitDy=0;entryX=0;entryY=0.5;entryDx=0;entryDy=0;" edge="1" parent="1" source="25" target="29">
                    <mxGeometry relative="1" as="geometry"/>
                </mxCell>
                <mxCell id="32" style="edgeStyle=orthogonalEdgeStyle;rounded=0;orthogonalLoop=1;jettySize=auto;html=1;exitX=0.75;exitY=1;exitDx=0;exitDy=0;entryX=0;entryY=0.5;entryDx=0;entryDy=0;" edge="1" parent="1" source="25" target="30">
                    <mxGeometry relative="1" as="geometry"/>
                </mxCell>
                <mxCell id="25" value="&lt;div class=&quot;O0&quot; style=&quot;margin-top: 0pt ; margin-bottom: 0pt ; margin-left: 0.38in ; text-indent: -0.38in&quot;&gt;&lt;font style=&quot;font-size: 23px&quot;&gt;exp11_3.v&lt;/font&gt;&lt;/div&gt;" style="rounded=1;whiteSpace=wrap;html=1;fillColor=#f0a30a;strokeColor=#BD7000;fontColor=#ffffff;shadow=0;glass=0;" parent="1" vertex="1">
                    <mxGeometry x="290" y="20" width="180" height="90" as="geometry"/>
                </mxCell>
                <mxCell id="35" style="edgeStyle=orthogonalEdgeStyle;rounded=0;orthogonalLoop=1;jettySize=auto;html=1;exitX=0.5;exitY=1;exitDx=0;exitDy=0;" edge="1" parent="1" source="27" target="34">
                    <mxGeometry relative="1" as="geometry"/>
                </mxCell>
                <mxCell id="41" style="edgeStyle=orthogonalEdgeStyle;rounded=0;orthogonalLoop=1;jettySize=auto;html=1;exitX=0;exitY=0.5;exitDx=0;exitDy=0;entryX=0.75;entryY=0;entryDx=0;entryDy=0;" edge="1" parent="1" source="27" target="7">
                    <mxGeometry relative="1" as="geometry"/>
                </mxCell>
                <mxCell id="27" value="&lt;div class=&quot;O0&quot; style=&quot;margin-top: 0pt ; margin-bottom: 0pt ; margin-left: 0.38in ; text-indent: -0.38in&quot;&gt;&lt;font style=&quot;font-size: 18px&quot;&gt;Generate_VGAdata.v&lt;/font&gt;&lt;/div&gt;" style="rounded=1;whiteSpace=wrap;html=1;fillColor=#f0a30a;strokeColor=#BD7000;fontColor=#ffffff;shadow=0;glass=0;" vertex="1" parent="1">
                    <mxGeometry x="485" y="330" width="216" height="90" as="geometry"/>
                </mxCell>
                <mxCell id="29" value="&lt;div class=&quot;O0&quot; style=&quot;margin-top: 0pt ; margin-bottom: 0pt ; margin-left: 0.38in ; text-indent: -0.38in&quot;&gt;&lt;font style=&quot;font-size: 14px&quot;&gt;clkgen.v&lt;/font&gt;&lt;/div&gt;" style="rounded=1;whiteSpace=wrap;html=1;shadow=0;glass=0;fillColor=#f0a30a;strokeColor=#BD7000;fontColor=#ffffff;" vertex="1" parent="1">
                    <mxGeometry x="530" y="160" width="92" height="40" as="geometry"/>
                </mxCell>
                <mxCell id="30" value="&lt;div class=&quot;O0&quot; style=&quot;margin-top: 0pt ; margin-bottom: 0pt ; margin-left: 0.38in ; text-indent: -0.38in&quot;&gt;&lt;font style=&quot;font-size: 14px&quot;&gt;vga_ctrl.v&lt;/font&gt;&lt;/div&gt;" style="rounded=1;whiteSpace=wrap;html=1;shadow=0;glass=0;fillColor=#f0a30a;strokeColor=#BD7000;fontColor=#ffffff;" vertex="1" parent="1">
                    <mxGeometry x="530" y="220" width="92" height="40" as="geometry"/>
                </mxCell>
                <mxCell id="34" value="&lt;div class=&quot;O0&quot; style=&quot;margin-top: 0pt ; margin-bottom: 0pt ; margin-left: 0.38in ; text-indent: -0.38in&quot;&gt;vga_font.txt&lt;/div&gt;" style="rounded=1;whiteSpace=wrap;html=1;shadow=0;glass=0;fillColor=#f0a30a;strokeColor=#BD7000;fontColor=#ffffff;" vertex="1" parent="1">
                    <mxGeometry x="543" y="460" width="100" height="40" as="geometry"/>
                </mxCell>
                <mxCell id="38" value="&lt;font color=&quot;#3333ff&quot;&gt;&lt;b&gt;显示器相关&lt;/b&gt;&lt;/font&gt;" style="text;html=1;strokeColor=none;align=center;verticalAlign=middle;whiteSpace=wrap;rounded=0;fillColor=#FFFF33;" vertex="1" parent="1">
                    <mxGeometry x="640" y="150" width="80" height="40" as="geometry"/>
                </mxCell>
                <mxCell id="39" value="&lt;font color=&quot;#3333ff&quot;&gt;&lt;b&gt;键盘相关&lt;/b&gt;&lt;/font&gt;" style="text;html=1;align=center;verticalAlign=middle;whiteSpace=wrap;rounded=0;fillColor=#FFFF33;strokeWidth=1;" vertex="1" parent="1">
                    <mxGeometry x="13" y="120" width="87" height="30" as="geometry"/>
                </mxCell>
            </root>
        </mxGraphModel>
    </diagram>
</mxfile>